<?xml version="1.0" encoding="UTF-8" standalone="no"?>
<!-- Generator: Adobe Illustrator 27.0.1, SVG Export Plug-In . SVG Version: 6.00 Build 0)  -->

<svg
   version="1.1"
   id="Layer_1"
   x="0px"
   y="0px"
   viewBox="0 0 48 48"
   xml:space="preserve"
   sodipodi:docname="icons8-settings-white-plain.svg"
   inkscape:version="1.3 (0e150ed6c4, 2023-07-21)"
   xmlns:inkscape="http://www.inkscape.org/namespaces/inkscape"
   xmlns:sodipodi="http://sodipodi.sourceforge.net/DTD/sodipodi-0.dtd"
   xmlns="http://www.w3.org/2000/svg"
   xmlns:svg="http://www.w3.org/2000/svg"><defs
   id="defs3" /><sodipodi:namedview
   id="namedview3"
   pagecolor="#ffffff"
   bordercolor="#000000"
   borderopacity="0.25"
   inkscape:showpageshadow="2"
   inkscape:pageopacity="0.0"
   inkscape:pagecheckerboard="0"
   inkscape:deskcolor="#d1d1d1"
   inkscape:zoom="24.4375"
   inkscape:cx="24"
   inkscape:cy="24"
   inkscape:window-width="2560"
   inkscape:window-height="1369"
   inkscape:window-x="-8"
   inkscape:window-y="-8"
   inkscape:window-maximized="1"
   inkscape:current-layer="Layer_1" />&#10;&#10;&#10;<g
   id="g3">&#10;	<path
   d="M25.8,45h-3.6c-0.42,0-0.794-0.262-0.938-0.656l-1.403-3.825c-1.876-0.442-3.658-1.182-5.312-2.206l-3.702,1.716   c-0.38,0.176-0.831,0.097-1.128-0.2l-2.546-2.546c-0.297-0.296-0.377-0.747-0.2-1.127l1.716-3.703   C7.662,30.8,6.923,29.018,6.48,27.142l-3.825-1.403C2.262,25.594,2,25.219,2,24.8v-3.6c0-0.419,0.262-0.794,0.655-0.939   l3.825-1.403c0.442-1.876,1.183-3.659,2.206-5.312L6.971,9.844c-0.177-0.381-0.097-0.831,0.2-1.127l2.546-2.545   c0.297-0.297,0.748-0.377,1.128-0.2l3.703,1.716c1.652-1.024,3.435-1.764,5.311-2.206l1.403-3.825C21.406,1.262,21.78,1,22.2,1h3.6   c0.42,0,0.794,0.262,0.938,0.656l1.403,3.825c1.876,0.442,3.658,1.182,5.311,2.206l3.703-1.716c0.38-0.177,0.831-0.097,1.128,0.2   l2.546,2.545c0.297,0.296,0.377,0.747,0.2,1.127l-1.716,3.703c1.023,1.653,1.764,3.435,2.206,5.312l3.825,1.403   C45.738,20.406,46,20.781,46,21.2v3.6c0,0.419-0.262,0.794-0.655,0.939l-3.825,1.403c-0.442,1.876-1.182,3.659-2.206,5.312   l1.716,3.703c0.177,0.381,0.097,0.831-0.2,1.127l-2.546,2.546c-0.297,0.297-0.748,0.376-1.128,0.2l-3.702-1.716   c-1.653,1.024-3.436,1.764-5.312,2.206l-1.403,3.825C26.594,44.738,26.22,45,25.8,45z M22.898,43h2.203l1.352-3.684   c0.119-0.326,0.399-0.567,0.74-0.636c2.008-0.407,3.902-1.193,5.63-2.338c0.29-0.192,0.657-0.22,0.974-0.074l3.566,1.653   l1.558-1.558l-1.652-3.567c-0.146-0.315-0.118-0.683,0.073-0.973c1.145-1.727,1.932-3.622,2.338-5.63   c0.069-0.341,0.31-0.621,0.636-0.741L44,24.102v-2.203l-3.685-1.351c-0.326-0.12-0.566-0.4-0.636-0.741   c-0.406-2.008-1.193-3.903-2.338-5.63c-0.191-0.29-0.22-0.658-0.073-0.973l1.652-3.567l-1.558-1.558l-3.567,1.653   c-0.316,0.146-0.684,0.118-0.974-0.074c-1.727-1.145-3.621-1.932-5.629-2.338c-0.341-0.069-0.621-0.31-0.74-0.636L25.102,3h-2.203   l-1.352,3.684c-0.119,0.326-0.399,0.567-0.74,0.636c-2.008,0.407-3.902,1.193-5.629,2.338c-0.29,0.192-0.655,0.22-0.974,0.074   l-3.567-1.653L9.079,9.637l1.652,3.567c0.146,0.315,0.118,0.683-0.073,0.973c-1.145,1.727-1.932,3.622-2.338,5.63   c-0.069,0.341-0.31,0.621-0.636,0.741L4,21.898v2.203l3.685,1.351c0.326,0.12,0.566,0.4,0.636,0.741   c0.406,2.008,1.193,3.903,2.338,5.63c0.191,0.29,0.22,0.658,0.073,0.973l-1.652,3.567l1.558,1.558l3.566-1.653   c0.316-0.146,0.684-0.119,0.974,0.074c1.728,1.145,3.622,1.932,5.63,2.338c0.341,0.069,0.621,0.31,0.74,0.636L22.898,43z M45,24.8   h0.01H45z M24,30.611c-4.197,0-7.611-3.415-7.611-7.611s3.414-7.611,7.611-7.611s7.611,3.415,7.611,7.611S28.197,30.611,24,30.611z    M24,17.389c-3.094,0-5.611,2.517-5.611,5.611s2.518,5.611,5.611,5.611s5.611-2.517,5.611-5.611S27.094,17.389,24,17.389z"
   id="path3" />&#10;</g>&#10;</svg>
