<?xml version="1.0" encoding="UTF-8" standalone="no"?>
<!-- Generator: Adobe Illustrator 27.0.1, SVG Export Plug-In . SVG Version: 6.00 Build 0)  -->

<svg
   version="1.1"
   id="Layer_1"
   x="0px"
   y="0px"
   viewBox="0 0 2304 2304"
   xml:space="preserve"
   width="2304"
   height="2304"
   xmlns="http://www.w3.org/2000/svg"
   xmlns:svg="http://www.w3.org/2000/svg"><defs
   id="defs3" />&#10;&#10;&#10;<g
   id="g3">&#10;	<path
   d="m 25.8,45 h -3.6 c -0.42,0 -0.794,-0.262 -0.938,-0.656 l -1.403,-3.825 c -1.876,-0.442 -3.658,-1.182 -5.312,-2.206 l -3.702,1.716 c -0.38,0.176 -0.831,0.097 -1.128,-0.2 L 7.171,37.283 C 6.874,36.987 6.794,36.536 6.971,36.156 L 8.687,32.453 C 7.662,30.8 6.923,29.018 6.48,27.142 L 2.655,25.739 C 2.262,25.594 2,25.219 2,24.8 V 21.2 C 2,20.781 2.262,20.406 2.655,20.261 L 6.48,18.858 C 6.922,16.982 7.663,15.199 8.686,13.546 L 6.971,9.844 C 6.794,9.463 6.874,9.013 7.171,8.717 L 9.717,6.172 c 0.297,-0.297 0.748,-0.377 1.128,-0.2 l 3.703,1.716 C 16.2,6.664 17.983,5.924 19.859,5.482 L 21.262,1.657 C 21.406,1.262 21.78,1 22.2,1 h 3.6 c 0.42,0 0.794,0.262 0.938,0.656 l 1.403,3.825 c 1.876,0.442 3.658,1.182 5.311,2.206 l 3.703,-1.716 c 0.38,-0.177 0.831,-0.097 1.128,0.2 l 2.546,2.545 c 0.297,0.296 0.377,0.747 0.2,1.127 l -1.716,3.703 c 1.023,1.653 1.764,3.435 2.206,5.312 l 3.825,1.403 C 45.738,20.406 46,20.781 46,21.2 v 3.6 c 0,0.419 -0.262,0.794 -0.655,0.939 l -3.825,1.403 c -0.442,1.876 -1.182,3.659 -2.206,5.312 l 1.716,3.703 c 0.177,0.381 0.097,0.831 -0.2,1.127 l -2.546,2.546 c -0.297,0.297 -0.748,0.376 -1.128,0.2 l -3.702,-1.716 c -1.653,1.024 -3.436,1.764 -5.312,2.206 l -1.403,3.825 C 26.594,44.738 26.22,45 25.8,45 Z m -2.902,-2 h 2.203 l 1.352,-3.684 c 0.119,-0.326 0.399,-0.567 0.74,-0.636 2.008,-0.407 3.902,-1.193 5.63,-2.338 0.29,-0.192 0.657,-0.22 0.974,-0.074 l 3.566,1.653 1.558,-1.558 -1.652,-3.567 c -0.146,-0.315 -0.118,-0.683 0.073,-0.973 1.145,-1.727 1.932,-3.622 2.338,-5.63 0.069,-0.341 0.31,-0.621 0.636,-0.741 L 44,24.102 v -2.203 l -3.685,-1.351 c -0.326,-0.12 -0.566,-0.4 -0.636,-0.741 -0.406,-2.008 -1.193,-3.903 -2.338,-5.63 -0.191,-0.29 -0.22,-0.658 -0.073,-0.973 L 38.92,9.637 37.362,8.079 33.795,9.732 C 33.479,9.878 33.111,9.85 32.821,9.658 31.094,8.513 29.2,7.726 27.192,7.32 26.851,7.251 26.571,7.01 26.452,6.684 L 25.102,3 h -2.203 l -1.352,3.684 c -0.119,0.326 -0.399,0.567 -0.74,0.636 -2.008,0.407 -3.902,1.193 -5.629,2.338 -0.29,0.192 -0.655,0.22 -0.974,0.074 l -3.567,-1.653 -1.558,1.558 1.652,3.567 c 0.146,0.315 0.118,0.683 -0.073,0.973 -1.145,1.727 -1.932,3.622 -2.338,5.63 -0.069,0.341 -0.31,0.621 -0.636,0.741 L 4,21.898 v 2.203 l 3.685,1.351 c 0.326,0.12 0.566,0.4 0.636,0.741 0.406,2.008 1.193,3.903 2.338,5.63 0.191,0.29 0.22,0.658 0.073,0.973 l -1.652,3.567 1.558,1.558 3.566,-1.653 c 0.316,-0.146 0.684,-0.119 0.974,0.074 1.728,1.145 3.622,1.932 5.63,2.338 0.341,0.069 0.621,0.31 0.74,0.636 z M 45,24.8 h 0.01 z m -21,5.811 c -4.197,0 -7.611,-3.415 -7.611,-7.611 0,-4.196 3.414,-7.611 7.611,-7.611 4.197,0 7.611,3.415 7.611,7.611 0,4.196 -3.414,7.611 -7.611,7.611 z m 0,-13.222 c -3.094,0 -5.611,2.517 -5.611,5.611 0,3.094 2.518,5.611 5.611,5.611 3.093,0 5.611,-2.517 5.611,-5.611 0,-3.094 -2.517,-5.611 -5.611,-5.611 z"
   id="path3" />&#10;</g>&#10;</svg>
